<svg xmlns="http://www.w3.org/2000/svg" viewBox="0 0 760 639" role="img" aria-label="2026-10-14 纽约 → 达拉斯转机 → 上海 路线顺序图">
<rect width="760" height="100%" fill="#f8f5ef"/>
<rect x="0" y="0" width="760" height="112" fill="#173444"/>
<text x="36" y="43" fill="#c8dfda" font-size="18" font-family="sans-serif" font-weight="700">2026-10-14 · 机场接驳与两段航班</text>
<text x="36" y="84" fill="white" font-size="28" font-family="sans-serif" font-weight="700">纽约 → 达拉斯转机 → 上海</text>
<line x1="70" y1="175" x2="70" y2="272" stroke="#546fa8" stroke-width="5"/>
<path d="M 62 260 L 70 271 L 78 260" fill="none" stroke="#546fa8" stroke-width="4"/>
<text x="125" y="247" fill="#546fa8" font-size="19" font-family="sans-serif" font-weight="700">接驳 · 酒店班车或预约车；酒店待订</text>
<rect x="111" y="124" width="604" height="68" rx="13" fill="white" stroke="#d8ddd9"/>
<circle cx="70" cy="156" r="22" fill="#c5743d" stroke="white" stroke-width="4"/>
<text x="70" y="163" text-anchor="middle" fill="white" font-size="20" font-family="sans-serif" font-weight="700">1</text>
<text x="130" y="158" fill="#173444" font-size="26" font-family="sans-serif" font-weight="700">JFK 酒店·待订</text>
<text x="130" y="183" fill="#64757a" font-size="17" font-family="sans-serif">JFK 附近酒店 · 待订</text>
<line x1="70" y1="291" x2="70" y2="388" stroke="#365b93" stroke-width="5"/>
<path d="M 62 376 L 70 387 L 78 376" fill="none" stroke="#365b93" stroke-width="4"/>
<text x="125" y="363" fill="#365b93" font-size="19" font-family="sans-serif" font-weight="700">航班 · AA475 · 06:30 起飞，09:37 抵达</text>
<rect x="111" y="240" width="604" height="68" rx="13" fill="white" stroke="#d8ddd9"/>
<circle cx="70" cy="272" r="22" fill="#23646b" stroke="white" stroke-width="4"/>
<text x="70" y="279" text-anchor="middle" fill="white" font-size="20" font-family="sans-serif" font-weight="700">2</text>
<text x="130" y="274" fill="#173444" font-size="26" font-family="sans-serif" font-weight="700">JFK 8号航站楼</text>
<text x="130" y="299" fill="#64757a" font-size="17" font-family="sans-serif">JFK Terminal 8</text>
<line x1="70" y1="407" x2="70" y2="504" stroke="#365b93" stroke-width="5"/>
<path d="M 62 492 L 70 503 L 78 492" fill="none" stroke="#365b93" stroke-width="4"/>
<text x="125" y="479" fill="#365b93" font-size="19" font-family="sans-serif" font-weight="700">航班 · AA127 · 10:40 起飞，次日 15:20 抵沪</text>
<rect x="111" y="356" width="604" height="68" rx="13" fill="white" stroke="#d8ddd9"/>
<circle cx="70" cy="388" r="22" fill="#23646b" stroke="white" stroke-width="4"/>
<text x="70" y="395" text-anchor="middle" fill="white" font-size="20" font-family="sans-serif" font-weight="700">3</text>
<text x="130" y="390" fill="#173444" font-size="26" font-family="sans-serif" font-weight="700">达拉斯转机</text>
<text x="130" y="415" fill="#64757a" font-size="17" font-family="sans-serif">DFW 转机</text>
<rect x="111" y="472" width="604" height="68" rx="13" fill="white" stroke="#d8ddd9"/>
<circle cx="70" cy="504" r="22" fill="#23646b" stroke="white" stroke-width="4"/>
<text x="70" y="511" text-anchor="middle" fill="white" font-size="20" font-family="sans-serif" font-weight="700">4</text>
<text x="130" y="506" fill="#173444" font-size="26" font-family="sans-serif" font-weight="700">上海浦东 T2</text>
<text x="130" y="531" fill="#64757a" font-size="17" font-family="sans-serif">PVG Terminal 2</text>
<text x="36" y="614" fill="#657781" font-size="18" font-family="sans-serif">交通顺序示意 · 非地理地图 · 实际地面导航请用下方分段链接</text>
</svg>