<svg xmlns="http://www.w3.org/2000/svg" viewBox="0 0 760 871" role="img" aria-label="2026-10-10 拉斯维加斯 → 纽约 路线顺序图">
<rect width="760" height="100%" fill="#f8f5ef"/>
<rect x="0" y="0" width="760" height="112" fill="#173444"/>
<text x="36" y="43" fill="#c8dfda" font-size="18" font-family="sans-serif" font-weight="700">2026-10-10 · 网约车 · 航班 · 轨道交通</text>
<text x="36" y="84" fill="white" font-size="28" font-family="sans-serif" font-weight="700">拉斯维加斯 → 纽约</text>
<line x1="70" y1="175" x2="70" y2="272" stroke="#287c79" stroke-width="5"/>
<path d="M 62 260 L 70 271 L 78 260" fill="none" stroke="#287c79" stroke-width="4"/>
<text x="125" y="247" fill="#287c79" font-size="19" font-family="sans-serif" font-weight="700">驾车 / 叫车 · 按实际航站楼</text>
<rect x="111" y="124" width="604" height="68" rx="13" fill="white" stroke="#d8ddd9"/>
<circle cx="70" cy="156" r="22" fill="#23646b" stroke="white" stroke-width="4"/>
<text x="70" y="163" text-anchor="middle" fill="white" font-size="20" font-family="sans-serif" font-weight="700">1</text>
<text x="130" y="158" fill="#173444" font-size="26" font-family="sans-serif" font-weight="700">枫丹白露酒店</text>
<text x="130" y="183" fill="#64757a" font-size="17" font-family="sans-serif">Fontainebleau 酒店</text>
<line x1="70" y1="291" x2="70" y2="388" stroke="#365b93" stroke-width="5"/>
<path d="M 62 376 L 70 387 L 78 376" fill="none" stroke="#365b93" stroke-width="4"/>
<text x="125" y="363" fill="#365b93" font-size="19" font-family="sans-serif" font-weight="700">航班 · 达美直飞，按登机牌</text>
<rect x="111" y="240" width="604" height="68" rx="13" fill="white" stroke="#d8ddd9"/>
<circle cx="70" cy="272" r="22" fill="#23646b" stroke="white" stroke-width="4"/>
<text x="70" y="279" text-anchor="middle" fill="white" font-size="20" font-family="sans-serif" font-weight="700">2</text>
<text x="130" y="274" fill="#173444" font-size="26" font-family="sans-serif" font-weight="700">拉斯维加斯机场</text>
<text x="130" y="299" fill="#64757a" font-size="17" font-family="sans-serif">LAS 机场</text>
<line x1="70" y1="407" x2="70" y2="504" stroke="#546fa8" stroke-width="5"/>
<path d="M 62 492 L 70 503 L 78 492" fill="none" stroke="#546fa8" stroke-width="4"/>
<text x="125" y="479" fill="#546fa8" font-size="19" font-family="sans-serif" font-weight="700">公共交通 · AirTrain JFK</text>
<rect x="111" y="356" width="604" height="68" rx="13" fill="white" stroke="#d8ddd9"/>
<circle cx="70" cy="388" r="22" fill="#23646b" stroke="white" stroke-width="4"/>
<text x="70" y="395" text-anchor="middle" fill="white" font-size="20" font-family="sans-serif" font-weight="700">3</text>
<text x="130" y="390" fill="#173444" font-size="26" font-family="sans-serif" font-weight="700">纽约 JFK 机场</text>
<text x="130" y="415" fill="#64757a" font-size="17" font-family="sans-serif">JFK 机场</text>
<line x1="70" y1="523" x2="70" y2="620" stroke="#546fa8" stroke-width="5"/>
<path d="M 62 608 L 70 619 L 78 608" fill="none" stroke="#546fa8" stroke-width="4"/>
<text x="125" y="595" fill="#546fa8" font-size="19" font-family="sans-serif" font-weight="700">公共交通 · LIRR 去曼哈顿</text>
<rect x="111" y="472" width="604" height="68" rx="13" fill="white" stroke="#d8ddd9"/>
<circle cx="70" cy="504" r="22" fill="#23646b" stroke="white" stroke-width="4"/>
<text x="70" y="511" text-anchor="middle" fill="white" font-size="20" font-family="sans-serif" font-weight="700">4</text>
<text x="130" y="506" fill="#173444" font-size="26" font-family="sans-serif" font-weight="700">牙买加站</text>
<text x="130" y="531" fill="#64757a" font-size="17" font-family="sans-serif">Jamaica 站</text>
<line x1="70" y1="639" x2="70" y2="736" stroke="#287c79" stroke-width="5"/>
<path d="M 62 724 L 70 735 L 78 724" fill="none" stroke="#287c79" stroke-width="4"/>
<text x="125" y="711" fill="#287c79" font-size="19" font-family="sans-serif" font-weight="700">驾车 / 叫车 · 带大箱从车站叫车</text>
<rect x="111" y="588" width="604" height="68" rx="13" fill="white" stroke="#d8ddd9"/>
<circle cx="70" cy="620" r="22" fill="#23646b" stroke="white" stroke-width="4"/>
<text x="70" y="627" text-anchor="middle" fill="white" font-size="20" font-family="sans-serif" font-weight="700">5</text>
<text x="130" y="622" fill="#173444" font-size="26" font-family="sans-serif" font-weight="700">宾夕法尼亚车站</text>
<text x="130" y="647" fill="#64757a" font-size="17" font-family="sans-serif">Penn / Moynihan 站</text>
<rect x="111" y="704" width="604" height="68" rx="13" fill="white" stroke="#d8ddd9"/>
<circle cx="70" cy="736" r="22" fill="#23646b" stroke="white" stroke-width="4"/>
<text x="70" y="743" text-anchor="middle" fill="white" font-size="20" font-family="sans-serif" font-weight="700">6</text>
<text x="130" y="738" fill="#173444" font-size="26" font-family="sans-serif" font-weight="700">曼哈顿酒店</text>
<text x="130" y="763" fill="#64757a" font-size="17" font-family="sans-serif">Le Soleil 酒店</text>
<text x="36" y="846" fill="#657781" font-size="18" font-family="sans-serif">交通顺序示意 · 非地理地图 · 实际地面导航请用下方分段链接</text>
</svg>